<?xml version="1.0" encoding="UTF-8"?><svg id="Layer_1" xmlns="http://www.w3.org/2000/svg" viewBox="0 0 976.8 972.6"><defs><style>.cls-1{fill:#103337;stroke-width:0px;}</style></defs><path class="cls-1" d="M476.56,327.08l-.11-59.7.07-28.14-.69-8.65h-8.65c-151.55,0-274.84,123.3-274.84,274.84,0,73.3,28.63,142.27,80.59,194.25,51.96,51.96,120.95,80.57,194.25,80.57s142.28-28.62,194.25-80.57c42.77-42.78,70.35-98.71,78.21-158.24l51.08.07c-8.07,73.18-40.97,141.82-93.3,194.13-61.51,61.51-143.28,95.38-230.23,95.38s-168.74-33.87-230.23-95.38c-61.5-61.49-95.37-143.27-95.37-230.23s33.87-168.72,95.37-230.21c61.5-61.51,143.27-95.38,230.95-95.38h8.63v-36.79l-.71-8.63h-8.63c-99.1,0-192.26,38.6-262.34,108.66-70.07,70.09-108.66,163.26-108.66,262.37-.01,99.09,38.59,192.25,108.66,262.34,70.08,70.07,163.25,108.66,262.33,108.66s192.28-38.6,262.35-108.66c70.07-70.09,108.66-163.26,108.66-263.08v-8.63l-141.72-.07v15.76c-3.39,123.02-106.23,223.1-229.28,223.1s-229.44-102.94-229.44-229.45c.01-113.27,82.45-209.01,193.32-226.53l.1,51.57c-83.74,17.18-144.58,92.88-142.59,179.04,2.2,96.28,82.31,174.59,178.56,174.59l4.14-.05c46.1-1.05,89.5-19.63,122.16-52.31,34.89-34.89,53.49-81.19,52.36-130.39-.49-21.84-4.9-43.04-13.08-63.15,21.63-27.69,19.54-67.33-5.7-92.62-25.25-25.17-64.9-27.31-92.59-5.68-18.25-7.39-38.02-11.76-57.86-12.81ZM527.86,444.76c17.28,17.23,42.37,24.1,65.76,18.56,4.18,12.53,6.46,25.64,6.79,39.05,1.66,73.46-56.73,134.59-130.17,136.28l-3.1.02c-71.79,0-131.54-58.4-133.19-130.2-.81-35.53,12.3-69.31,36.92-95.05,24.59-25.76,57.71-40.4,93.25-41.24l3.08-.02c14.32,0,28.44,2.31,42.08,6.84-5.53,23.46,1.34,48.49,18.59,65.74ZM577.42,370.48c6.6,0,12.81,2.57,17.46,7.2,4.66,4.68,7.23,10.89,7.23,17.49s-2.55,12.81-7.21,17.45c-4.66,4.66-10.85,7.23-17.46,7.23h-.01c-6.61,0-12.81-2.57-17.46-7.23-4.66-4.63-7.21-10.84-7.21-17.45s2.57-12.81,7.21-17.47c4.66-4.66,10.86-7.23,17.46-7.23Z"/><path class="cls-1" d="M957.63,415.12v-.02c-24.67-24.67-67.97-24.65-92.64.02-12.36,12.36-19.17,28.81-19.17,46.32s6.81,33.96,19.17,46.35c6.67,6.65,14.74,11.79,23.61,15.04-4.3,106.03-47.89,205.54-123.19,280.81-79.67,79.67-185.57,123.54-298.23,123.54s-218.56-43.87-298.23-123.54c-79.67-79.64-123.54-185.55-123.54-298.21s43.87-218.59,123.54-298.23c76.03-76.03,176.5-119.64,283.59-123.28,3.07,10.55,8.69,20.08,16.49,27.88,24.67,24.72,67.97,24.69,92.64.02,12.36-12.36,19.17-28.81,19.17-46.32s-6.81-33.99-19.17-46.32c-12.35-12.38-28.81-19.18-46.32-19.18h-.01c-17.52,0-33.96,6.82-46.31,19.16-5.6,5.61-10.05,12.07-13.29,19.28-120.49,2.88-233.54,51.27-318.91,136.64C48.6,263.32,0,380.63,0,505.43s48.6,242.09,136.84,330.34c88.24,88.22,205.54,136.83,330.36,136.83,124.79-.02,242.1-48.63,330.32-136.83,83.86-83.87,132.19-194.8,136.51-312.94,8.87-3.26,16.93-8.39,23.6-15.07,12.36-12.36,19.17-28.81,19.17-46.32s-6.81-33.96-19.17-46.32ZM925.53,475.65v.02c-3.79,3.78-8.84,5.87-14.22,5.87s-10.42-2.09-14.21-5.89c-3.79-3.78-5.87-8.82-5.87-14.19s2.08-10.43,5.88-14.24c3.78-3.78,8.83-5.87,14.21-5.87s10.42,2.09,14.2,5.85c7.84,7.87,7.84,20.63.01,28.45ZM501.13,51.29c3.8-3.8,8.85-5.89,14.22-5.89s10.42,2.09,14.22,5.89c7.83,7.82,7.83,20.58,0,28.43-7.84,7.87-20.62,7.84-28.44.02-7.84-7.87-7.84-20.63-.01-28.45Z"/></svg>