<?xml version="1.0" encoding="UTF-8"?><svg id="Layer_1" xmlns="http://www.w3.org/2000/svg" viewBox="0 0 273.26 272.09"><defs><style>.cls-1{fill:#103337;stroke-width:0px;}</style></defs><path class="cls-1" d="M133.32,91.5l-.03-16.7.02-7.87-.19-2.42h-2.42c-42.4,0-76.89,34.49-76.89,76.89,0,20.51,8.01,39.8,22.55,54.34,14.53,14.53,33.84,22.54,54.34,22.54s39.8-8.01,54.34-22.54c11.96-11.97,19.68-27.61,21.88-44.27l14.29.02c-2.26,20.47-11.46,39.67-26.1,54.31-17.21,17.21-40.08,26.68-64.41,26.68s-47.2-9.47-64.41-26.68c-17.2-17.2-26.68-40.08-26.68-64.41s9.47-47.2,26.68-64.4c17.2-17.21,40.08-26.68,64.61-26.68h2.41v-10.29l-.2-2.41h-2.41c-27.72,0-53.79,10.8-73.39,30.4-19.6,19.61-30.4,45.67-30.4,73.4,0,27.72,10.79,53.78,30.4,73.39,19.6,19.6,45.67,30.4,73.39,30.4s53.79-10.8,73.39-30.4c19.6-19.61,30.4-45.67,30.4-73.6v-2.41l-39.65-.02v4.41c-.95,34.41-29.72,62.41-64.14,62.41s-64.19-28.8-64.19-64.19c0-31.69,23.07-58.47,54.08-63.37l.03,14.43c-23.43,4.81-40.45,25.98-39.89,50.09.62,26.93,23.03,48.84,49.95,48.84h1.16c12.9-.31,25.04-5.51,34.18-14.65,9.76-9.76,14.96-22.71,14.65-36.48-.14-6.11-1.37-12.04-3.66-17.67,6.05-7.75,5.47-18.84-1.6-25.91-7.06-7.04-18.15-7.64-25.9-1.59-5.11-2.07-10.63-3.29-16.19-3.58ZM147.67,124.42c4.83,4.82,11.85,6.74,18.4,5.19,1.17,3.5,1.81,7.17,1.9,10.92.47,20.55-15.87,37.65-36.42,38.12h-.87c-20.08,0-36.8-16.33-37.26-36.42-.23-9.94,3.44-19.39,10.33-26.59,6.88-7.21,16.14-11.3,26.09-11.54h.86c4.01,0,7.96.64,11.77,1.91-1.55,6.56.38,13.56,5.2,18.39ZM161.54,103.64c1.85,0,3.58.72,4.88,2.01,1.3,1.31,2.02,3.05,2.02,4.89s-.71,3.58-2.02,4.88c-1.3,1.3-3.04,2.02-4.88,2.02h0c-1.85,0-3.58-.72-4.88-2.02-1.3-1.3-2.02-3.03-2.02-4.88s.72-3.58,2.02-4.89c1.3-1.3,3.04-2.02,4.88-2.02Z"/><path class="cls-1" d="M267.9,116.13h0c-6.9-6.91-19.02-6.9-25.92,0-3.46,3.46-5.36,8.06-5.36,12.96s1.9,9.5,5.36,12.97c1.87,1.86,4.12,3.3,6.61,4.21-1.2,29.66-13.4,57.5-34.46,78.56-22.29,22.29-51.91,34.56-83.43,34.56s-61.14-12.27-83.43-34.56c-22.29-22.28-34.56-51.91-34.56-83.42s12.27-61.15,34.56-83.43c21.27-21.27,49.37-33.47,79.33-34.49.86,2.95,2.43,5.62,4.61,7.8,6.9,6.91,19.02,6.91,25.92,0,3.46-3.46,5.36-8.06,5.36-12.96s-1.9-9.51-5.36-12.96C153.68,1.9,149.07,0,144.17,0h0C139.27,0,134.67,1.91,131.21,5.36c-1.57,1.57-2.81,3.38-3.72,5.39-33.71.8-65.33,14.34-89.22,38.22C13.6,73.66,0,106.48,0,141.4s13.6,67.73,38.28,92.41c24.68,24.68,57.5,38.28,92.42,38.28,34.91,0,67.73-13.6,92.41-38.28,23.46-23.46,36.98-54.49,38.19-87.55,2.48-.91,4.74-2.35,6.6-4.22,3.46-3.46,5.36-8.06,5.36-12.96s-1.9-9.5-5.36-12.96ZM258.92,133.06h0c-1.06,1.06-2.47,1.65-3.98,1.65s-2.92-.59-3.98-1.65c-1.06-1.06-1.64-2.47-1.64-3.97s.58-2.92,1.65-3.98c1.06-1.06,2.47-1.64,3.98-1.64s2.92.59,3.97,1.64c2.19,2.2,2.19,5.77,0,7.96ZM140.19,14.35c1.06-1.06,2.48-1.65,3.98-1.65s2.92.59,3.98,1.65c2.19,2.19,2.19,5.76,0,7.95-2.19,2.2-5.77,2.19-7.96,0-2.19-2.2-2.19-5.77,0-7.96Z"/></svg>