<?xml version="1.0" encoding="UTF-8"?><svg id="Layer_1" xmlns="http://www.w3.org/2000/svg" viewBox="0 0 1817.74 363.48"><defs><style>.cls-1{fill:#17182e;stroke-width:0px;}</style></defs><path class="cls-1" d="M173.61,119.15l-.04-21.75.03-10.25-.25-3.15h-3.15c-55.21,0-100.12,44.92-100.12,100.12,0,26.7,10.43,51.83,29.36,70.76,18.93,18.93,44.06,29.35,70.76,29.35s51.83-10.42,70.76-29.35c15.58-15.58,25.63-35.96,28.49-57.65l18.61.03c-2.94,26.66-14.93,51.66-33.99,70.72-22.41,22.41-52.2,34.75-83.87,34.75s-61.47-12.34-83.87-34.75c-22.4-22.4-34.74-52.19-34.74-83.87s12.34-61.46,34.74-83.86c22.4-22.41,52.19-34.75,84.13-34.75h3.14v-13.4l-.26-3.14h-3.14c-36.1,0-70.04,14.06-95.57,39.59-25.52,25.53-39.59,59.47-39.59,95.58,0,36.1,14.06,70.04,39.59,95.57,25.53,25.52,59.47,39.59,95.56,39.59s70.04-14.06,95.57-39.59c25.52-25.53,39.59-59.47,39.59-95.84v-3.14l-51.63-.03v5.74c-1.23,44.81-38.7,81.27-83.53,81.27s-83.58-37.5-83.58-83.59c0-41.26,30.04-76.14,70.43-82.52l.03,18.79c-30.51,6.26-52.67,33.84-51.94,65.22.8,35.07,29.98,63.6,65.05,63.6l1.51-.02c16.79-.38,32.6-7.15,44.5-19.06,12.71-12.71,19.49-29.58,19.07-47.5-.18-7.96-1.78-15.68-4.77-23,7.88-10.09,7.12-24.53-2.08-33.74-9.2-9.17-23.64-9.95-33.73-2.07-6.65-2.69-13.85-4.29-21.08-4.67ZM192.29,162.02c6.29,6.28,15.43,8.78,23.96,6.76,1.52,4.56,2.36,9.34,2.47,14.23.61,26.76-20.67,49.03-47.42,49.65h-1.13c-26.15,0-47.92-21.26-48.52-47.42-.29-12.94,4.48-25.25,13.45-34.62,8.96-9.39,21.02-14.72,33.97-15.02h1.12c5.22,0,10.36.83,15.33,2.48-2.01,8.55.49,17.66,6.77,23.95ZM210.35,134.96c2.4,0,4.67.94,6.36,2.62,1.7,1.71,2.63,3.97,2.63,6.37s-.93,4.67-2.63,6.36c-1.7,1.7-3.95,2.63-6.36,2.63h0c-2.41,0-4.67-.94-6.36-2.63-1.7-1.69-2.63-3.95-2.63-6.36s.94-4.67,2.63-6.36c1.7-1.7,3.96-2.63,6.36-2.63Z"/><path class="cls-1" d="M348.86,151.22h0c-8.99-9-24.76-8.99-33.75,0-4.5,4.5-6.98,10.49-6.98,16.87s2.48,12.37,6.98,16.88c2.43,2.42,5.37,4.29,8.6,5.48-1.57,38.62-17.45,74.88-44.88,102.3-29.02,29.02-67.6,45.01-108.64,45.01s-79.62-15.98-108.64-45.01c-29.02-29.01-45.01-67.59-45.01-108.63s15.98-79.63,45.01-108.64c27.7-27.7,64.3-43.59,103.31-44.91,1.12,3.84,3.16,7.32,6.01,10.16,8.99,9,24.76,9,33.75,0,4.5-4.5,6.98-10.49,6.98-16.87s-2.48-12.38-6.98-16.87C200.12,2.48,194.12,0,187.74,0h0C181.35,0,175.36,2.48,170.86,6.98c-2.04,2.04-3.66,4.4-4.84,7.02-43.89,1.05-85.08,18.68-116.18,49.78C17.71,95.92,0,138.66,0,184.12s17.71,88.19,49.85,120.34c32.14,32.14,74.88,49.85,120.35,49.85,45.46,0,88.2-17.71,120.33-49.85,30.55-30.55,48.16-70.96,49.73-114,3.23-1.19,6.17-3.06,8.6-5.49,4.5-4.5,6.98-10.49,6.98-16.87s-2.48-12.37-6.98-16.87ZM337.16,173.28h0c-1.38,1.39-3.22,2.15-5.18,2.15s-3.8-.76-5.18-2.15c-1.38-1.38-2.14-3.21-2.14-5.17s.76-3.8,2.14-5.19c1.38-1.38,3.22-2.14,5.18-2.14s3.8.76,5.17,2.13c2.86,2.87,2.86,7.52,0,10.36ZM182.56,18.68c1.39-1.39,3.23-2.15,5.18-2.15s3.8.76,5.18,2.15c2.85,2.85,2.85,7.5,0,10.36-2.86,2.87-7.51,2.86-10.36,0-2.86-2.87-2.86-7.52,0-10.36Z"/><path class="cls-1" d="M419.55,63.11h21.12l-13.89,98.85h126.74l13.89-98.85h21.12l-31.53,224.32h-21.12l14.96-106.46h-126.74l-14.96,106.46h-21.12l31.53-224.32Z"/><path class="cls-1" d="M628.15,332.74c-4.97,9.51-11.03,17-18.2,22.5-7.17,5.49-16.1,8.24-26.76,8.24-3.2,0-6.36-.27-9.49-.79-3.13-.53-6.13-1.22-8.99-2.06l4.41-17.74c2.65.84,5.37,1.63,8.15,2.38,2.78.74,5.66,1.11,8.65,1.11,3.41,0,6.55-.74,9.43-2.22,2.87-1.48,5.44-3.38,7.68-5.7,2.25-2.33,4.26-4.91,6.05-7.76,1.79-2.85,3.42-5.76,4.9-8.71l18.21-33.9-39.51-147.02h21.44l31.64,123.25,65.01-123.25h20.48l-103.11,191.69Z"/><path class="cls-1" d="M742.47,141.05h19.2l-3.61,25.66h.64c3.7-5.07,8.05-9.45,13.05-13.15,5-3.69,10.28-6.76,15.85-9.19,5.57-2.43,11.32-4.22,17.24-5.39,5.92-1.16,11.66-1.74,17.21-1.74,11.31,0,21.44,1.9,30.4,5.7,8.96,3.8,16.42,9.14,22.39,16,5.97,6.87,10.21,15,12.73,24.4,2.52,9.4,2.99,19.7,1.42,30.89-1.57,11.2-4.94,21.5-10.1,30.89-5.16,9.4-11.7,17.54-19.59,24.4-7.9,6.87-16.87,12.2-26.89,16-10.03,3.8-20.7,5.7-32.01,5.7-5.55,0-11.12-.58-16.72-1.74-5.6-1.16-10.84-2.96-15.73-5.39-4.89-2.43-9.31-5.49-13.27-9.19-3.96-3.69-7.08-8.08-9.35-13.15h-.64l-13.76,97.9h-19.2l30.73-218.62ZM749.46,214.24c-1.16,8.24-.65,16,1.53,23.29,2.18,7.29,5.66,13.62,10.45,19.01,4.79,5.39,10.69,9.66,17.72,12.83,7.02,3.17,14.9,4.75,23.66,4.75s17.29-1.58,24.99-4.75c7.7-3.17,14.49-7.45,20.36-12.83,5.88-5.39,10.66-11.72,14.35-19.01,3.69-7.29,6.12-15.05,7.27-23.29,1.16-8.24.91-16-.73-23.29-1.64-7.29-4.64-13.62-9.01-19.01-4.36-5.38-9.95-9.66-16.76-12.83-6.81-3.17-14.7-4.75-23.66-4.75s-17.08,1.58-24.99,4.75c-7.92,3.17-15.02,7.45-21.33,12.83-6.31,5.39-11.57,11.72-15.79,19.01-4.22,7.29-6.92,15.05-8.07,23.29Z"/><path class="cls-1" d="M1036.85,259.87c-9.04,11.2-19.4,19.22-31.07,24.08-11.68,4.86-24.12,7.29-37.35,7.29-11.31,0-21.29-1.9-29.92-5.7-8.64-3.8-15.79-9.13-21.43-16-5.65-6.86-9.57-15-11.77-24.4-2.2-9.4-2.5-19.8-.89-31.21,1.54-10.98,4.78-21.12,9.72-30.42,4.93-9.29,11.19-17.37,18.77-24.24,7.58-6.86,16.12-12.25,25.63-16.16,9.51-3.91,19.71-5.86,30.59-5.86s21.01,1.96,29.1,5.86c8.09,3.91,14.62,9.08,19.58,15.53,4.96,6.45,8.35,13.78,10.19,22.02,1.83,8.24,2.15,16.58.96,25.03l-1.87,13.31h-124.18c-.56,4.02-.49,9.14.24,15.37.72,6.23,2.8,12.31,6.24,18.22,3.43,5.92,8.43,10.99,14.98,15.21,6.55,4.23,15.48,6.34,26.79,6.34,9.81,0,19.63-2.32,29.47-6.97,9.82-4.64,17.75-10.98,23.79-19.01l12.43,11.72ZM1030.27,201.89c.92-6.54.45-12.67-1.42-18.38-1.87-5.7-4.79-10.72-8.76-15.05-3.98-4.33-8.94-7.76-14.88-10.3-5.94-2.53-12.43-3.8-19.47-3.8-10.46,0-19.45,2.11-26.97,6.34-7.53,4.23-13.71,9.08-18.53,14.57-4.83,5.49-8.46,10.83-10.89,16-2.44,5.18-3.78,8.71-4.05,10.61h104.97Z"/><path class="cls-1" d="M1069.2,182.24c.39-2.74.74-6.07,1.08-9.98.33-3.91.73-7.87,1.19-11.88.45-4.01.82-7.76,1.1-11.25.28-3.49.55-6.18.82-8.08h19.2c-.56,5.49-1.14,10.77-1.75,15.84-.61,5.07-.8,8.35-.58,9.82,6.12-8.66,13.41-15.73,21.86-21.23,8.45-5.49,18.23-8.24,29.32-8.24,1.92,0,3.76.16,5.53.48,1.77.32,3.59.69,5.45,1.11l-4.87,18.69c-2.44-.84-4.84-1.27-7.18-1.27-8.32,0-15.71,1.32-22.16,3.96-6.45,2.64-11.98,6.29-16.58,10.93-4.6,4.65-8.3,10.09-11.1,16.32-2.8,6.24-4.7,12.94-5.71,20.12l-11.22,79.85h-19.2l14.78-105.19Z"/><path class="cls-1" d="M1350.92,252.26c-12.93,14.57-26.99,25.03-42.17,31.37-15.19,6.34-31.1,9.51-47.74,9.51s-32.72-2.91-46.3-8.71c-13.59-5.81-24.77-13.94-33.54-24.4-8.77-10.46-15.02-22.92-18.75-37.39-3.73-14.47-4.39-30.26-1.98-47.37,2.4-17.11,7.5-32.84,15.28-47.21,7.78-14.36,17.53-26.77,29.24-37.23,11.71-10.46,25.18-18.64,40.41-24.56,15.23-5.91,31.49-8.87,48.77-8.87,15.36,0,29.33,2.69,41.91,8.08,12.57,5.39,22.99,14.42,31.24,27.09l-19.29,14.26c-5.56-10.56-13.49-18.27-23.79-23.13-10.31-4.86-21.22-7.29-32.74-7.29-14.72,0-28.36,2.53-40.91,7.6-12.55,5.07-23.61,12.04-33.18,20.91-9.57,8.87-17.44,19.33-23.61,31.37-6.17,12.04-10.24,25.03-12.2,38.97-1.96,13.94-1.55,26.93,1.24,38.97,2.79,12.04,7.72,22.5,14.79,31.37,7.08,8.87,16.18,15.84,27.31,20.91,11.13,5.07,24.05,7.6,38.78,7.6,5.76,0,11.83-.68,18.21-2.06,6.38-1.37,12.7-3.49,18.97-6.34,6.27-2.85,12.37-6.44,18.32-10.77,5.94-4.33,11.37-9.56,16.29-15.68l15.46,12.99Z"/><path class="cls-1" d="M1395.93,332.74c-4.97,9.51-11.03,17-18.2,22.5-7.17,5.49-16.1,8.24-26.76,8.24-3.2,0-6.36-.27-9.49-.79-3.13-.53-6.13-1.22-8.99-2.06l4.41-17.74c2.65.84,5.37,1.63,8.15,2.38,2.78.74,5.66,1.11,8.65,1.11,3.41,0,6.55-.74,9.43-2.22,2.87-1.48,5.44-3.38,7.68-5.7,2.25-2.33,4.26-4.91,6.05-7.76,1.79-2.85,3.42-5.76,4.9-8.71l18.21-33.9-39.51-147.02h21.44l31.64,123.25,65.01-123.25h20.48l-103.11,191.69Z"/><path class="cls-1" d="M1606,265.89c-8.47,8.66-17.59,15.05-27.34,19.17-9.76,4.12-19.97,6.18-30.64,6.18-11.31,0-21.5-1.9-30.56-5.7-9.07-3.8-16.53-9.13-22.4-16-5.86-6.86-10.05-15-12.57-24.4-2.52-9.4-2.99-19.69-1.42-30.89,1.57-11.19,4.94-21.49,10.1-30.89,5.16-9.4,11.64-17.53,19.43-24.4,7.79-6.86,16.76-12.2,26.89-16,10.14-3.8,20.85-5.7,32.16-5.7s20.65,2.22,29.31,6.65c8.66,4.44,16.05,10.67,22.18,18.69l-16.97,11.4c-4.69-6.12-10.1-10.93-16.22-14.42-6.13-3.48-13.03-5.23-20.71-5.23-8.96,0-17.29,1.58-24.99,4.75-7.7,3.17-14.49,7.45-20.37,12.83-5.88,5.39-10.66,11.72-14.35,19.01-3.69,7.29-6.12,15.05-7.27,23.29-1.16,8.24-.92,16,.73,23.29,1.64,7.29,4.65,13.62,9.01,19.01,4.36,5.39,9.95,9.66,16.76,12.83,6.81,3.17,14.69,4.75,23.65,4.75,8.11,0,15.78-1.85,23.02-5.55,7.24-3.69,13.74-8.6,19.51-14.73l13.03,12.04Z"/><path class="cls-1" d="M1657.75,47.9h19.2l-33.66,239.53h-19.2l33.66-239.53Z"/><path class="cls-1" d="M1804.94,259.87c-9.04,11.2-19.4,19.22-31.07,24.08-11.68,4.86-24.12,7.29-37.35,7.29-11.31,0-21.29-1.9-29.92-5.7-8.64-3.8-15.79-9.13-21.43-16-5.65-6.86-9.57-15-11.77-24.4-2.2-9.4-2.5-19.8-.89-31.21,1.54-10.98,4.78-21.12,9.72-30.42,4.93-9.29,11.19-17.37,18.77-24.24,7.58-6.86,16.12-12.25,25.63-16.16,9.51-3.91,19.71-5.86,30.59-5.86s21.01,1.96,29.1,5.86c8.09,3.91,14.62,9.08,19.58,15.53,4.96,6.45,8.35,13.78,10.19,22.02,1.83,8.24,2.15,16.58.96,25.03l-1.87,13.31h-124.18c-.56,4.02-.49,9.14.24,15.37.72,6.23,2.8,12.31,6.24,18.22,3.43,5.92,8.43,10.99,14.98,15.21,6.55,4.23,15.48,6.34,26.79,6.34,9.81,0,19.64-2.32,29.47-6.97,9.82-4.64,17.75-10.98,23.79-19.01l12.43,11.72ZM1798.37,201.89c.92-6.54.45-12.67-1.42-18.38-1.87-5.7-4.79-10.72-8.76-15.05-3.98-4.33-8.94-7.76-14.88-10.3-5.94-2.53-12.43-3.8-19.47-3.8-10.46,0-19.45,2.11-26.97,6.34-7.53,4.23-13.71,9.08-18.53,14.57-4.83,5.49-8.46,10.83-10.89,16-2.44,5.18-3.78,8.71-4.05,10.61h104.97Z"/></svg>