<?xml version="1.0" encoding="UTF-8"?><svg id="Layer_1" xmlns="http://www.w3.org/2000/svg" viewBox="0 0 956.68 225.02"><defs><style>.cls-1{fill:#103337;stroke-width:0px;}</style></defs><path class="cls-1" d="M110.9,86.15l-.02-9.88v-4.66s-.1-1.43-.1-1.43h-1.43c-25.09,0-45.5,20.41-45.5,45.5,0,12.13,4.74,23.55,13.34,32.16,8.6,8.6,20.02,13.34,32.16,13.34s23.56-4.74,32.16-13.34c7.08-7.08,11.65-16.34,12.95-26.2h8.46c-1.34,12.13-6.78,23.49-15.45,32.15-10.18,10.18-23.72,15.79-38.12,15.79s-27.94-5.61-38.12-15.79c-10.18-10.18-15.79-23.72-15.79-38.12s5.61-27.93,15.79-38.11c10.18-10.18,23.72-15.79,38.23-15.79h1.43v-6.09l-.12-1.43h-1.43c-16.41,0-31.83,6.39-43.43,17.99-11.6,11.6-17.99,27.03-17.99,43.44,0,16.4,6.39,31.83,17.99,43.43,11.6,11.6,27.03,17.99,43.43,17.99s31.83-6.39,43.43-17.99c11.6-11.6,17.99-27.03,17.99-43.55v-1.43h-23.46s0,2.6,0,2.6c-.56,20.37-17.58,36.94-37.96,36.94s-37.98-17.04-37.98-37.99c0-18.75,13.65-34.6,32.01-37.5l.02,8.54c-13.86,2.84-23.94,15.38-23.61,29.64.36,15.94,13.63,28.91,29.56,28.91h.68c7.63-.18,14.82-3.26,20.22-8.67,5.78-5.78,8.86-13.44,8.67-21.59-.08-3.62-.81-7.13-2.17-10.45,3.58-4.58,3.23-11.15-.94-15.33-4.18-4.17-10.74-4.52-15.33-.94-3.02-1.22-6.29-1.95-9.58-2.12ZM119.39,105.63c2.86,2.85,7.01,3.99,10.89,3.07.69,2.07,1.07,4.25,1.12,6.46.28,12.16-9.39,22.28-21.55,22.56h-.51c-11.89,0-21.78-9.66-22.05-21.55-.13-5.88,2.04-11.47,6.11-15.74,4.07-4.27,9.55-6.69,15.44-6.83h.51c2.37,0,4.71.38,6.97,1.13-.91,3.88.22,8.03,3.08,10.88ZM127.6,93.34c1.09,0,2.12.42,2.89,1.19.77.78,1.2,1.8,1.2,2.9s-.42,2.12-1.19,2.89c-.77.77-1.8,1.2-2.89,1.2h0c-1.09,0-2.12-.42-2.89-1.2-.77-.77-1.19-1.79-1.19-2.89s.42-2.12,1.19-2.89c.77-.77,1.8-1.2,2.89-1.2Z"/><path class="cls-1" d="M190.54,100.73h0c-4.08-4.09-11.25-4.08-15.34,0-2.05,2.05-3.17,4.77-3.17,7.67s1.13,5.62,3.17,7.67c1.1,1.1,2.44,1.95,3.91,2.49-.71,17.55-7.93,34.03-20.39,46.49-13.19,13.19-30.72,20.45-49.37,20.45s-36.18-7.26-49.37-20.45c-13.19-13.19-20.45-30.72-20.45-49.37s7.26-36.19,20.45-49.37c12.59-12.59,29.22-19.81,46.95-20.41.51,1.75,1.44,3.32,2.73,4.62,4.08,4.09,11.25,4.09,15.34,0,2.05-2.05,3.17-4.77,3.17-7.67s-1.13-5.63-3.17-7.67c-2.04-2.05-4.77-3.18-7.67-3.18h0c-2.9,0-5.62,1.13-7.67,3.17-.93.93-1.66,2-2.2,3.19-19.95.48-38.66,8.49-52.8,22.62-14.61,14.61-22.65,34.03-22.65,54.69s8.05,40.08,22.65,54.69c14.61,14.61,34.03,22.65,54.69,22.65,20.66,0,40.08-8.05,54.69-22.65,13.88-13.89,21.89-32.25,22.6-51.81,1.47-.54,2.8-1.39,3.91-2.49,2.05-2.05,3.17-4.77,3.17-7.67s-1.13-5.62-3.17-7.67ZM185.23,110.75h0c-.63.63-1.46.98-2.35.98s-1.73-.35-2.35-.98c-.63-.63-.97-1.46-.97-2.35s.34-1.73.97-2.36,1.46-.97,2.35-.97,1.73.35,2.35.97c1.3,1.3,1.3,3.42,0,4.71ZM114.97,40.49c.63-.63,1.47-.98,2.35-.98s1.73.35,2.35.98c1.3,1.29,1.3,3.41,0,4.71-1.3,1.3-3.41,1.3-4.71,0-1.3-1.3-1.3-3.42,0-4.71Z"/><path class="cls-1" d="M225.69,56.71h10.56l-6.95,49.42h63.36l6.95-49.42h10.56l-15.76,112.15h-10.56l7.48-53.22h-63.36l-7.48,53.22h-10.56l15.76-112.15Z"/><path class="cls-1" d="M329.97,191.51c-2.48,4.75-5.51,8.5-9.1,11.25-3.59,2.75-8.05,4.12-13.38,4.12-1.6,0-3.18-.13-4.74-.4-1.56-.26-3.06-.61-4.5-1.03l2.21-8.87c1.33.42,2.68.82,4.07,1.19,1.39.37,2.83.55,4.32.55,1.7,0,3.28-.37,4.72-1.11,1.44-.74,2.72-1.69,3.84-2.85,1.12-1.16,2.13-2.46,3.02-3.88.89-1.43,1.71-2.88,2.45-4.36l9.1-16.95-19.75-73.5h10.72l15.82,61.62,32.5-61.62h10.24l-51.55,95.83Z"/><path class="cls-1" d="M387.12,95.68h9.6l-1.8,12.83h.32c1.85-2.53,4.02-4.72,6.52-6.57,2.5-1.85,5.14-3.38,7.92-4.59,2.78-1.21,5.66-2.11,8.62-2.69,2.96-.58,5.83-.87,8.6-.87,5.65,0,10.72.95,15.2,2.85,4.48,1.9,8.21,4.57,11.2,8,2.98,3.43,5.11,7.5,6.37,12.2,1.26,4.7,1.5,9.85.71,15.44-.79,5.6-2.47,10.75-5.05,15.44-2.58,4.7-5.85,8.77-9.79,12.2-3.95,3.43-8.43,6.1-13.44,8-5.01,1.9-10.35,2.85-16,2.85-2.78,0-5.56-.29-8.36-.87-2.8-.58-5.42-1.48-7.86-2.69-2.44-1.21-4.65-2.74-6.63-4.59-1.98-1.85-3.54-4.04-4.68-6.57h-.32l-6.88,48.94h-9.6l15.36-109.3ZM390.62,132.27c-.58,4.12-.32,8,.76,11.64,1.09,3.64,2.83,6.81,5.22,9.5,2.39,2.69,5.35,4.83,8.86,6.42,3.51,1.58,7.45,2.38,11.83,2.38s8.64-.79,12.49-2.38c3.85-1.58,7.24-3.72,10.18-6.42,2.94-2.69,5.33-5.86,7.17-9.5,1.85-3.64,3.06-7.52,3.64-11.64.58-4.12.46-8-.36-11.64-.82-3.64-2.32-6.81-4.5-9.5-2.18-2.69-4.98-4.83-8.38-6.41-3.41-1.58-7.35-2.38-11.83-2.38s-8.54.79-12.49,2.38c-3.96,1.58-7.51,3.72-10.66,6.41-3.15,2.69-5.78,5.86-7.9,9.5-2.11,3.64-3.46,7.52-4.04,11.64Z"/><path class="cls-1" d="M534.29,155.08c-4.52,5.6-9.7,9.61-15.53,12.04-5.84,2.43-12.06,3.64-18.67,3.64-5.66,0-10.64-.95-14.96-2.85-4.32-1.9-7.89-4.57-10.72-8-2.83-3.43-4.79-7.5-5.89-12.2-1.1-4.7-1.25-9.9-.45-15.6.77-5.49,2.39-10.56,4.86-15.21,2.47-4.65,5.59-8.69,9.38-12.12,3.79-3.43,8.06-6.12,12.82-8.08,4.75-1.95,9.85-2.93,15.29-2.93s10.5.98,14.55,2.93c4.04,1.96,7.31,4.54,9.79,7.76,2.48,3.22,4.18,6.89,5.09,11.01.91,4.12,1.08,8.29.48,12.51l-.93,6.65h-62.08c-.28,2.01-.24,4.57.12,7.68.36,3.12,1.4,6.15,3.12,9.11,1.72,2.96,4.21,5.49,7.49,7.6,3.28,2.11,7.74,3.17,13.39,3.17,4.9,0,9.82-1.16,14.73-3.49,4.91-2.32,8.88-5.49,11.9-9.5l6.22,5.86ZM531,126.09c.46-3.27.22-6.34-.71-9.19-.93-2.85-2.39-5.36-4.38-7.52-1.99-2.16-4.47-3.88-7.44-5.15-2.97-1.27-6.21-1.9-9.73-1.9-5.23,0-9.72,1.06-13.49,3.17-3.76,2.11-6.85,4.54-9.26,7.29-2.41,2.75-4.23,5.41-5.44,8-1.22,2.59-1.89,4.36-2.03,5.31h52.48Z"/><path class="cls-1" d="M550.46,116.27c.19-1.37.37-3.04.54-4.99.17-1.95.37-3.93.6-5.94.23-2,.41-3.88.55-5.62.14-1.74.27-3.09.41-4.04h9.6c-.28,2.75-.57,5.39-.87,7.92-.3,2.53-.4,4.17-.29,4.91,3.06-4.33,6.71-7.87,10.93-10.61,4.23-2.75,9.11-4.12,14.66-4.12.96,0,1.88.08,2.77.24.88.16,1.79.34,2.72.55l-2.43,9.35c-1.22-.42-2.42-.63-3.59-.63-4.16,0-7.85.66-11.08,1.98-3.23,1.32-5.99,3.14-8.29,5.46-2.3,2.32-4.15,5.04-5.55,8.16-1.4,3.12-2.35,6.47-2.85,10.06l-5.61,39.92h-9.6l7.39-52.59Z"/><path class="cls-1" d="M691.3,151.27c-6.46,7.29-13.49,12.51-21.08,15.68-7.59,3.17-15.55,4.75-23.87,4.75s-16.36-1.45-23.15-4.36c-6.79-2.9-12.38-6.97-16.77-12.2-4.39-5.23-7.51-11.46-9.37-18.69-1.86-7.23-2.19-15.13-.99-23.68s3.75-16.42,7.64-23.6c3.89-7.18,8.76-13.38,14.62-18.61,5.85-5.23,12.59-9.32,20.2-12.28,7.62-2.96,15.74-4.44,24.38-4.44,7.68,0,14.66,1.35,20.95,4.04,6.29,2.69,11.49,7.21,15.62,13.54l-9.64,7.13c-2.78-5.28-6.74-9.13-11.9-11.56-5.15-2.43-10.61-3.64-16.37-3.64-7.36,0-14.18,1.27-20.45,3.8s-11.81,6.02-16.59,10.45c-4.78,4.44-8.72,9.66-11.8,15.68-3.09,6.02-5.12,12.51-6.1,19.48s-.77,13.46.62,19.48c1.39,6.02,3.86,11.25,7.4,15.68,3.54,4.43,8.09,7.92,13.65,10.45,5.56,2.53,12.03,3.8,19.38,3.8,2.88,0,5.91-.34,9.11-1.03,3.19-.69,6.35-1.74,9.48-3.17,3.13-1.43,6.19-3.22,9.16-5.39,2.97-2.16,5.68-4.78,8.14-7.84l7.73,6.49Z"/><path class="cls-1" d="M713.81,191.51c-2.48,4.75-5.51,8.5-9.1,11.25-3.59,2.75-8.05,4.12-13.38,4.12-1.6,0-3.18-.13-4.74-.4-1.56-.26-3.06-.61-4.5-1.03l2.21-8.87c1.33.42,2.68.82,4.07,1.19,1.39.37,2.83.55,4.32.55,1.7,0,3.28-.37,4.72-1.11,1.44-.74,2.72-1.69,3.84-2.85,1.12-1.16,2.13-2.46,3.02-3.88.89-1.43,1.71-2.88,2.45-4.36l9.1-16.95-19.75-73.5h10.72l15.82,61.62,32.5-61.62h10.24l-51.55,95.83Z"/><path class="cls-1" d="M818.82,158.09c-4.24,4.33-8.79,7.52-13.67,9.58-4.88,2.06-9.98,3.09-15.32,3.09-5.65,0-10.75-.95-15.28-2.85-4.53-1.9-8.27-4.57-11.2-8-2.93-3.43-5.03-7.5-6.29-12.2-1.26-4.7-1.5-9.85-.71-15.44.79-5.6,2.47-10.74,5.05-15.44,2.58-4.7,5.82-8.76,9.71-12.2,3.89-3.43,8.38-6.1,13.44-8,5.07-1.9,10.43-2.85,16.08-2.85s10.33,1.11,14.65,3.33c4.33,2.22,8.02,5.33,11.09,9.35l-8.48,5.7c-2.34-3.06-5.05-5.46-8.11-7.21-3.06-1.74-6.51-2.61-10.35-2.61-4.48,0-8.65.79-12.49,2.38-3.85,1.58-7.24,3.72-10.18,6.41-2.94,2.69-5.33,5.86-7.18,9.5-1.85,3.64-3.06,7.52-3.64,11.64-.58,4.12-.46,8,.36,11.64.82,3.64,2.32,6.81,4.5,9.5,2.18,2.69,4.97,4.83,8.38,6.42,3.4,1.58,7.35,2.38,11.83,2.38,4.05,0,7.89-.92,11.51-2.77,3.62-1.85,6.87-4.3,9.76-7.37l6.51,6.02Z"/><path class="cls-1" d="M844.7,49.11h9.6l-16.83,119.75h-9.6l16.83-119.75Z"/><path class="cls-1" d="M918.28,155.08c-4.52,5.6-9.7,9.61-15.53,12.04-5.84,2.43-12.06,3.64-18.67,3.64-5.66,0-10.64-.95-14.96-2.85-4.32-1.9-7.89-4.57-10.72-8-2.83-3.43-4.79-7.5-5.89-12.2-1.1-4.7-1.25-9.9-.45-15.6.77-5.49,2.39-10.56,4.86-15.21,2.47-4.65,5.59-8.69,9.38-12.12,3.79-3.43,8.06-6.12,12.82-8.08,4.75-1.95,9.85-2.93,15.29-2.93s10.5.98,14.55,2.93c4.04,1.96,7.31,4.54,9.79,7.76,2.48,3.22,4.18,6.89,5.09,11.01.91,4.12,1.08,8.29.48,12.51l-.93,6.65h-62.08c-.28,2.01-.24,4.57.12,7.68.36,3.12,1.4,6.15,3.12,9.11,1.72,2.96,4.21,5.49,7.49,7.6,3.28,2.11,7.74,3.17,13.39,3.17,4.9,0,9.82-1.16,14.73-3.49,4.91-2.32,8.88-5.49,11.9-9.5l6.22,5.86ZM915,126.09c.46-3.27.22-6.34-.71-9.19-.93-2.85-2.39-5.36-4.38-7.52-1.99-2.16-4.47-3.88-7.44-5.15-2.97-1.27-6.21-1.9-9.73-1.9-5.23,0-9.72,1.06-13.49,3.17-3.76,2.11-6.85,4.54-9.26,7.29-2.41,2.75-4.23,5.41-5.44,8-1.22,2.59-1.89,4.36-2.03,5.31h52.48Z"/></svg>